<svg width="121" height="168" viewBox="0 0 121 168" fill="none" xmlns="http://www.w3.org/2000/svg">
<g clip-path="url(#clip0)">
<path d="M94.7957 6.21649H84.842L95.1955 17.3659V22.6684H73.8652V16.4586H84.2186L73.8652 5.30922V0H94.8025L94.7957 6.21649ZM69.6303 6.21649H59.663L70.03 17.3659V22.6684H48.6929V16.4586H59.0464L48.6929 5.30922V0H69.6303V6.21649ZM44.7088 6.47187H33.9691V16.2032H44.7088V22.6751H26.3259V0H44.7088V6.47187Z" fill="white"/>
<path d="M11.6834 154.512L0.760742 33.0249H120.761L109.825 154.492L60.6862 168L11.6834 154.512Z" fill="#1572B6"/>
<path d="M60.7607 157.677L100.467 146.756L109.804 42.9577H60.7607V157.677Z" fill="#33A9DC"/>
<path d="M60.7607 86.9704H80.641L82.0098 71.7148H60.7607V56.8221H98.4344L98.0753 60.8208L94.3824 101.883H60.7607V86.9704Z" fill="white"/>
<path d="M60.8419 125.667H60.7741L44.0446 121.185L42.974 109.303H27.9046L30.0119 132.697L60.7877 141.192H60.8758V125.667H60.8419Z" fill="#EBEBEB"/>
<path d="M79.3671 101.231L77.5579 121.171L60.8013 125.654V141.178L91.5974 132.71L91.821 130.19L94.4365 101.225H79.3671V101.231Z" fill="white"/>
<path d="M60.815 56.8221V71.7215H24.5372L24.2255 68.3747L23.5411 60.8208L23.182 56.8221H60.815ZM60.7608 86.9704V101.87H44.221L43.9296 98.5229L43.2453 90.9691L42.8861 86.9704H60.754H60.7608Z" fill="#EBEBEB"/>
</g>
<defs>
<clipPath id="clip0">
<rect width="120" height="168" fill="white" transform="translate(0.760742)"/>
</clipPath>
</defs>
</svg>
