<svg width="152" height="152" viewBox="0 0 152 152" fill="none" xmlns="http://www.w3.org/2000/svg">
<path d="M0 76V0H152V152H0" fill="#007ACC"/>
<path d="M33.326 76.266V82.46H53.0861V138.7H67.1081V82.46H86.8681V76.38C86.8681 72.96 86.8681 70.186 86.7161 70.11C86.7161 69.996 74.6701 69.958 60.0401 69.958L33.4401 70.072V76.304L33.326 76.266ZM122.132 69.92C126.008 70.832 128.972 72.58 131.632 75.354C133.038 76.874 135.128 79.534 135.28 80.218C135.28 80.446 128.706 84.892 124.716 87.362C124.564 87.476 123.956 86.83 123.348 85.842C121.372 83.03 119.358 81.814 116.204 81.586C111.644 81.282 108.604 83.676 108.604 87.666C108.604 88.882 108.832 89.566 109.288 90.554C110.314 92.644 112.214 93.898 118.104 96.482C128.972 101.156 133.684 104.234 136.534 108.642C139.764 113.582 140.486 121.334 138.32 127.148C135.888 133.494 129.96 137.788 121.486 139.194C118.826 139.65 112.746 139.574 109.896 139.08C103.816 137.94 98.0021 134.9 94.4301 130.986C93.0241 129.466 90.3261 125.4 90.4781 125.134L91.9221 124.222L97.6221 120.916L101.916 118.408L102.904 119.738C104.158 121.714 106.97 124.374 108.604 125.286C113.544 127.832 120.156 127.49 123.424 124.526C124.83 123.234 125.438 121.866 125.438 119.966C125.438 118.218 125.172 117.42 124.298 116.09C123.082 114.418 120.65 113.05 113.81 110.01C105.944 106.666 102.6 104.538 99.484 101.27C97.6981 99.294 96.0641 96.216 95.3041 93.67C94.7341 91.466 94.5441 86.07 95.0761 83.904C96.7101 76.304 102.448 70.984 110.656 69.464C113.316 68.932 119.586 69.16 122.208 69.844L122.132 69.92Z" fill="white"/>
</svg>
