<svg width="93" height="132" viewBox="0 0 93 132" fill="none" xmlns="http://www.w3.org/2000/svg">
<g clip-path="url(#clip0)">
<path d="M91.8883 25.6842L83.5368 120.164L45.996 130.674L8.55868 120.178L0.215759 25.6842H91.8883Z" fill="#E44D26"/>
<path d="M46.0521 122.64L76.387 114.148L83.5236 33.4103H46.0521V122.64Z" fill="#F16529"/>
<path d="M29.817 56.5893H46.0522V45H17.2747L17.5493 48.1092L20.3701 80.0463H46.0522V68.457H30.8659L29.817 56.5893ZM32.4035 85.8411H20.8829L22.4906 104.038L45.9993 110.628L46.0522 110.614V98.5558L46.0019 98.5692L33.2207 95.0841L32.4035 85.8411Z" fill="#EBEBEB"/>
<path d="M8.745 0.00463867H14.5772V5.82343H19.9124V0.00463867H25.7449V17.6254H19.9127V11.725H14.5775V17.6254H8.74535V0.00463867H8.745ZM33.414 5.84811H28.2804V0.00463867H44.3841V5.84811H39.2473V17.6254H33.4151V5.84811H33.4148H33.414ZM46.9398 0.00463867H53.021L56.7618 6.19611L60.499 0.00463867H66.5827V17.6254H60.7742V8.89159L56.7618 15.1567H56.6612L52.6462 8.89159V17.6254H46.9398V0.00463867ZM69.4851 0.00463867H75.3191V11.8012H83.5208V17.6254H69.4848V0.00463867H69.4851Z" fill="white"/>
<path d="M46.0126 80.0463H60.1445L58.8121 95.0768L46.0122 98.5656V110.623L69.5396 104.038L69.7121 102.08L72.4094 71.569L72.6893 68.457H46.0126V80.0463ZM46.0126 56.561V56.5893H73.7335L73.9635 53.9846L74.4867 48.1092L74.7609 45H46.0126V56.5614V56.561Z" fill="white"/>
</g>
<defs>
<clipPath id="clip0">
<rect width="92" height="131" fill="white" transform="translate(0.0559692 0.00463867)"/>
</clipPath>
</defs>
</svg>
