<svg width="152" height="152" viewBox="0 0 152 152" fill="none" xmlns="http://www.w3.org/2000/svg">
<path d="M149.133 69.2289L82.7687 2.86788C78.9491 -0.954088 72.7504 -0.954088 68.9261 2.86788L55.1451 16.6488L72.6269 34.1306C76.6893 32.7578 81.3479 33.6788 84.5862 36.9171C87.84 40.1762 88.7543 44.8745 87.3483 48.95L104.196 65.7983C108.272 64.394 112.975 65.3025 116.231 68.5633C120.781 73.1115 120.781 80.4829 116.231 85.034C111.68 89.5857 104.308 89.5857 99.7547 85.034C96.3324 81.608 95.4869 76.5819 97.2194 72.3657L81.5076 56.6539L81.5058 98.0009C82.6448 98.564 83.6851 99.3079 84.5862 100.204C89.1361 104.752 89.1361 112.124 84.5862 116.678C80.0351 121.228 72.6601 121.228 68.1156 116.678C63.5657 112.124 63.5657 104.752 68.1156 100.204C69.2059 99.1134 70.5017 98.2495 71.9281 97.6624V55.9301C70.4997 55.347 69.2031 54.4826 68.1156 53.3883C64.6683 49.9457 63.8394 44.8876 65.6058 40.6547L48.3728 23.4199L2.86781 68.922C-0.955938 72.7475 -0.955938 78.9469 2.86781 82.7694L69.2336 149.132C73.0544 152.954 79.252 152.954 83.0775 149.132L149.133 83.0776C152.955 79.2538 152.955 73.0509 149.133 69.2289" fill="#DE4C36"/>
</svg>
