<svg width="117" height="117" viewBox="0 0 117 117" fill="none" xmlns="http://www.w3.org/2000/svg">
<g clip-path="url(#clip0)">
<path d="M0.385986 0.941406H116.386V116.941H0.385986V0.941406Z" fill="#F7DF1E"/>
<path d="M30.8867 97.8794L39.7634 92.5071C41.4762 95.5435 43.0341 98.1127 46.771 98.1127C50.3529 98.1127 52.6118 96.7116 52.6118 91.2615V54.1967H63.5126V91.4155C63.5126 102.706 56.8942 107.845 47.2382 107.845C38.5178 107.845 33.4559 103.329 30.8862 97.8784L30.8867 97.8794ZM69.4336 96.7112L78.3094 91.5723C80.6462 95.3881 83.683 98.1911 89.0553 98.1911C93.5725 98.1911 96.4525 95.9327 96.4525 92.8179C96.4525 89.0806 93.4936 87.7565 88.5101 85.577L85.7855 84.4079C77.9206 81.0607 72.7038 76.8557 72.7038 67.979C72.7038 59.8028 78.9329 53.5732 88.6665 53.5732C95.5966 53.5732 100.58 55.9875 104.162 62.2945L95.6736 67.7456C93.8045 64.3975 91.7808 63.0739 88.666 63.0739C85.4733 63.0739 83.4487 65.0985 83.4487 67.7456C83.4487 71.0158 85.4733 72.3403 90.145 74.3649L92.8701 75.5326C102.137 79.5042 107.353 83.5529 107.353 92.6625C107.353 102.474 99.6448 107.847 89.2886 107.847C79.1662 107.847 72.6254 103.019 69.4331 96.7116" fill="#2D2E32"/>
</g>
<defs>
<clipPath id="clip0">
<rect width="116" height="116" fill="white" transform="translate(0.385986 0.941406)"/>
</clipPath>
</defs>
</svg>
