<svg width="70" height="104" viewBox="0 0 70 104" fill="none" xmlns="http://www.w3.org/2000/svg">
<g clip-path="url(#clip0)">
<path d="M17.8455 104C27.3656 104 35.0921 96.2347 35.0921 86.6666V69.3333H17.8455C8.32545 69.3333 0.598999 77.0986 0.598999 86.6666C0.598999 96.2347 8.32545 104 17.8455 104Z" fill="#0ACF83"/>
<path d="M0.598999 51.9999C0.598999 42.432 8.32545 34.6666 17.8455 34.6666H35.0921V69.3333H17.8455C8.32545 69.3333 0.598999 61.5679 0.598999 51.9999Z" fill="#A259FF"/>
<path d="M0.599121 17.3334C0.599121 7.76538 8.32558 4.57764e-05 17.8457 4.57764e-05H35.0922V34.6667H17.8457C8.32558 34.6667 0.599121 26.9014 0.599121 17.3334Z" fill="#F24E1E"/>
<path d="M35.092 4.57764e-05H52.3386C61.8587 4.57764e-05 69.5851 7.76538 69.5851 17.3334C69.5851 26.9014 61.8587 34.6667 52.3386 34.6667H35.092V4.57764e-05Z" fill="#FF7262"/>
<path d="M69.5851 51.9999C69.5851 61.5679 61.8587 69.3333 52.3386 69.3333C42.8185 69.3333 35.092 61.5679 35.092 51.9999C35.092 42.432 42.8185 34.6666 52.3386 34.6666C61.8587 34.6666 69.5851 42.432 69.5851 51.9999Z" fill="#1ABCFE"/>
</g>
<defs>
<clipPath id="clip0">
<rect width="69" height="104" fill="white" transform="translate(0.592041)"/>
</clipPath>
</defs>
</svg>
