<svg width="152" height="152" viewBox="0 0 152 152" fill="none" xmlns="http://www.w3.org/2000/svg">
<path d="M76.2939 0C118.1 0 152 34.8419 152 77.8229C152 112.208 130.308 141.379 100.227 151.669C96.444 152.39 95.0546 149.981 95.0546 147.925C95.0546 146.07 95.1253 139.939 95.1573 133.436C116.219 138.144 120.664 124.254 120.664 124.254C124.107 115.259 129.069 112.867 129.069 112.867C135.938 108.037 128.552 108.136 128.552 108.136C120.949 108.685 116.946 116.156 116.946 116.156C110.194 128.054 99.2358 124.614 94.9157 122.626C94.2364 117.595 92.2741 114.163 90.1093 112.219C106.924 110.251 124.601 103.578 124.601 73.7585C124.601 65.2625 121.644 58.3197 116.801 52.8699C117.587 50.9094 120.178 42.9944 116.067 32.2748C116.067 32.2748 109.71 30.1831 95.2428 40.2521C89.2044 38.5272 82.7278 37.663 76.2939 37.6337C69.86 37.663 63.3787 38.5272 57.3283 40.2521C42.8783 30.1831 36.5299 32.2748 36.5299 32.2748C32.4092 42.9944 35.0016 50.9094 35.7877 52.8699C30.9338 58.3197 27.9965 65.2618 27.9965 73.7585C27.9965 103.649 45.7069 110.231 62.5646 112.157C59.8494 114.572 57.4299 119.308 57.4299 126.569C57.4299 136.981 57.5177 145.362 57.5177 147.925C57.5177 149.996 56.1551 152.423 52.3171 151.659C22.2532 141.357 0.588409 112.196 0.588409 77.8229C0.588409 34.8419 34.4838 0 76.2939 0Z" fill="white"/>
<path d="M123.645 110.861C123.812 111.247 124.404 111.363 124.943 111.098C125.492 110.844 125.801 110.317 125.623 109.929C125.459 109.531 124.867 109.42 124.319 109.687C123.768 109.94 123.455 110.473 123.645 110.861ZM119.921 114.276C120.282 114.62 120.988 114.461 121.468 113.917C121.963 113.374 122.055 112.649 121.689 112.299C121.317 111.956 120.632 112.116 120.136 112.659C119.641 113.208 119.544 113.929 119.922 114.277L119.921 114.276ZM117.367 118.646C117.831 118.978 118.59 118.667 119.058 117.975C119.522 117.283 119.522 116.453 119.048 116.121C118.578 115.788 117.831 116.087 117.356 116.774C116.893 117.478 116.893 118.308 117.367 118.647L117.367 118.646ZM113.046 123.708C113.461 124.178 114.345 124.052 114.992 123.41C115.654 122.783 115.838 121.892 115.422 121.422C115.002 120.95 114.113 121.083 113.461 121.719C112.804 122.346 112.604 123.243 113.046 123.708H113.046ZM107.463 125.417C107.645 126.026 108.497 126.303 109.354 126.044C110.21 125.778 110.771 125.064 110.598 124.448C110.42 123.834 109.565 123.546 108.701 123.823C107.846 124.088 107.284 124.797 107.462 125.417H107.463ZM101.107 126.141C101.086 126.784 101.813 127.316 102.713 127.327C103.619 127.348 104.351 126.828 104.36 126.197C104.36 125.549 103.65 125.021 102.745 125.006C101.845 124.988 101.107 125.504 101.107 126.141ZM94.8647 125.895C94.7566 126.522 95.3824 127.165 96.276 127.336C97.1548 127.501 97.9682 127.114 98.0804 126.494C98.1897 125.852 97.552 125.209 96.675 125.042C95.7796 124.882 94.9787 125.259 94.8647 125.895Z" fill="#161614"/>
</svg>
