<svg width="130" height="148" viewBox="0 0 130 148" fill="none" xmlns="http://www.w3.org/2000/svg">
<path d="M130 74.0132C130 65.4089 119.215 57.2547 102.68 52.1981C106.496 35.3602 104.8 21.964 97.3278 17.6751C95.6054 16.669 93.5915 16.1925 91.3922 16.1925V22.0963C92.6111 22.0963 93.5915 22.3346 94.413 22.7847C98.0167 24.8497 99.5801 32.7127 98.3612 42.826C98.0697 45.3146 97.5927 47.9356 97.0098 50.6096C91.8161 49.3388 86.1455 48.3592 80.1834 47.7238C76.6062 42.826 72.8965 38.3783 69.1602 34.4865C77.7986 26.4647 85.9071 22.0699 91.4187 22.0699V16.166C84.1317 16.166 74.5923 21.3551 64.947 30.3564C55.3017 21.408 45.7623 16.2719 38.4753 16.2719V22.1758C43.9605 22.1758 52.0954 26.5441 60.7338 34.513C57.0241 38.4047 53.3143 42.826 49.7901 47.7238C43.8015 48.3592 38.1309 49.3388 32.9372 50.6361C32.3278 47.9886 31.8773 45.4205 31.5593 42.9584C30.3139 32.8451 31.8508 24.9821 35.428 22.8906C36.223 22.414 37.2564 22.2022 38.4753 22.2022V16.2984C36.2495 16.2984 34.2356 16.7749 32.4867 17.781C25.0408 22.0699 23.3714 35.4396 27.2136 52.2245C10.7318 57.3077 0 65.4354 0 74.0132C0 82.6175 10.7848 90.7717 27.3196 95.8283C23.5039 112.666 25.1998 126.062 32.6722 130.351C34.3946 131.357 36.4085 131.834 38.6343 131.834C45.9213 131.834 55.4607 126.645 65.106 117.643C74.7513 126.592 84.2907 131.728 91.5777 131.728C93.8035 131.728 95.8174 131.251 97.5662 130.245C105.012 125.957 106.682 112.587 102.839 95.8019C119.268 90.7452 130 82.591 130 74.0132ZM95.4994 56.3546C94.5189 59.7698 93.3 63.2909 91.9221 66.8121C90.8357 64.6941 89.6963 62.5761 88.4509 60.4582C87.232 58.3402 85.9336 56.2752 84.6351 54.2631C88.3979 54.819 92.0281 55.5074 95.4994 56.3546ZM83.3632 84.5501C81.2964 88.1242 79.1765 91.513 76.9772 94.6634C73.0289 95.0076 69.0277 95.1929 65 95.1929C60.9988 95.1929 56.9976 95.0076 53.0758 94.6899C50.8765 91.5394 48.7301 88.1772 46.6633 84.6295C44.6494 81.1614 42.821 77.6402 41.1517 74.0926C42.7945 70.545 44.6494 66.9974 46.6368 63.5292C48.7036 59.9551 50.8235 56.5664 53.0228 53.4159C56.9711 53.0717 60.9723 52.8864 65 52.8864C69.0012 52.8864 73.0024 53.0717 76.9242 53.3894C79.1235 56.5399 81.2699 59.9022 83.3367 63.4498C85.3506 66.918 87.179 70.4391 88.8483 73.9867C87.179 77.5343 85.3506 81.0819 83.3632 84.5501ZM91.9221 81.1084C93.353 84.656 94.572 88.2036 95.5789 91.6453C92.1076 92.4925 88.4509 93.2073 84.6616 93.7633C85.9601 91.7248 87.2585 89.6333 88.4774 87.4888C89.6963 85.3708 90.8357 83.2264 91.9221 81.1084ZM65.053 109.357C62.5887 106.815 60.1243 103.983 57.6865 100.885C60.0713 100.991 62.5092 101.07 64.9735 101.07C67.4643 101.07 69.9287 101.017 72.34 100.885C69.9552 103.983 67.4908 106.815 65.053 109.357ZM45.3384 93.7633C41.5756 93.2073 37.9454 92.519 34.4741 91.6718C35.4545 88.2566 36.6735 84.7354 38.0514 81.2143C39.1378 83.3323 40.2772 85.4503 41.5226 87.5682C42.768 89.6862 44.0399 91.7512 45.3384 93.7633ZM64.9205 38.6695C67.3848 41.2111 69.8492 44.0439 72.287 47.1414C69.9022 47.0355 67.4643 46.9561 65 46.9561C62.5092 46.9561 60.0448 47.009 57.6335 47.1414C60.0183 44.0439 62.4827 41.2111 64.9205 38.6695ZM45.3119 54.2631C44.0135 56.3016 42.715 58.3931 41.4961 60.5376C40.2772 62.6556 39.1378 64.7735 38.0514 66.8915C36.6205 63.3439 35.4016 59.7963 34.3946 56.3546C37.8659 55.5339 41.5226 54.819 45.3119 54.2631ZM21.331 87.4094C11.9507 83.4117 5.88259 78.1697 5.88259 74.0132C5.88259 69.8567 11.9507 64.5882 21.331 60.617C23.6099 59.6374 26.1007 58.7638 28.671 57.9431C30.1814 63.1321 32.1688 68.5329 34.6331 74.0661C32.1953 79.5729 30.2344 84.9472 28.7505 90.1098C26.1272 89.2891 23.6364 88.3889 21.331 87.4094ZM35.587 125.242C31.9833 123.177 30.4199 115.314 31.6388 105.2C31.9303 102.712 32.4073 100.091 32.9902 97.4168C38.1839 98.6876 43.8545 99.6672 49.8166 100.303C53.3938 105.2 57.1035 109.648 60.8398 113.54C52.2014 121.562 44.0929 125.957 38.5813 125.957C37.3889 125.93 36.382 125.692 35.587 125.242ZM98.4407 105.068C99.6861 115.181 98.1492 123.044 94.5719 125.136C93.777 125.612 92.7436 125.824 91.5247 125.824C86.0395 125.824 77.9046 121.456 69.2662 113.487C72.976 109.595 76.6857 105.174 80.21 100.276C86.1985 99.6407 91.8691 98.6611 97.0628 97.3639C97.6722 100.038 98.1492 102.606 98.4407 105.068ZM108.642 87.4094C106.364 88.3889 103.873 89.2626 101.302 90.0833C99.7921 84.8943 97.8047 79.4935 95.3404 73.9602C97.7782 68.4535 99.7391 63.0792 101.223 57.9166C103.846 58.7373 106.337 59.6374 108.669 60.617C118.049 64.6147 124.117 69.8567 124.117 74.0132C124.091 78.1697 118.023 83.4382 108.642 87.4094Z" fill="#61DAFB"/>
<path d="M64.9736 86.1122C71.6616 86.1122 77.0832 80.6953 77.0832 74.0132C77.0832 67.3312 71.6616 61.9143 64.9736 61.9143C58.2856 61.9143 52.8639 67.3312 52.8639 74.0132C52.8639 80.6953 58.2856 86.1122 64.9736 86.1122Z" fill="#61DAFB"/>
</svg>
